HIERARCHY
ROOT Hips
{
 OFFSET 0.000000 0.000000 0.000000
 CHANNELS 6 Xposition Yposition Zposition Yrotation Xrotation Zrotation
 JOINT Chest
 {
  OFFSET 0.000000 9.585900 0.002600
  CHANNELS 3 Yrotation Xrotation Zrotation
  JOINT Chest2
  {
   OFFSET 0.000000 9.601200 -0.005300
   CHANNELS 3 Yrotation Xrotation Zrotation
   JOINT Chest3
   {
    OFFSET 0.000000 9.561800 0.000000
    CHANNELS 3 Yrotation Xrotation Zrotation
    JOINT Chest4
    {
     OFFSET 0.000000 9.552100 0.000000
     CHANNELS 3 Yrotation Xrotation Zrotation
     JOINT Neck
     {
      OFFSET 0.000000 14.453000 0.000000
      CHANNELS 3 Yrotation Xrotation Zrotation
      JOINT Head
      {
       OFFSET 0.000000 8.936500 -0.011300
       CHANNELS 3 Yrotation Xrotation Zrotation
       End Site
       {
        OFFSET 0.000000 17.073600 -0.006000
       }
      }
     }
     JOINT RightCollar
     {
      OFFSET -2.921100 9.558500 0.000000
      CHANNELS 3 Yrotation Xrotation Zrotation
      JOINT RightShoulder
      {
       OFFSET -13.519700 0.000000 0.000000
       CHANNELS 3 Yrotation Xrotation Zrotation
       JOINT RightElbow
       {
        OFFSET 0.000000 -29.696600 0.000000
        CHANNELS 3 Yrotation Xrotation Zrotation
        JOINT RightWrist
        {
         OFFSET 0.000000 -24.004700 0.000000
         CHANNELS 3 Yrotation Xrotation Zrotation
         End Site
         {
          OFFSET 0.000000 -17.728500 0.000000
         }
        }
       }
      }
     }
     JOINT LeftCollar
     {
      OFFSET 2.921100 9.558500 0.000000
      CHANNELS 3 Yrotation Xrotation Zrotation
      JOINT LeftShoulder
      {
       OFFSET 13.519700 0.000000 0.000000
       CHANNELS 3 Yrotation Xrotation Zrotation
       JOINT LeftElbow
       {
        OFFSET 0.000000 -29.696600 0.000000
        CHANNELS 3 Yrotation Xrotation Zrotation
        JOINT LeftWrist
        {
         OFFSET 0.000000 -24.004700 0.000000
         CHANNELS 3 Yrotation Xrotation Zrotation
         End Site
         {
          OFFSET 0.000000 -17.728500 0.000000
         }
        }
       }
      }
     }
    }
   }
  }
 }
 JOINT RightHip
 {
  OFFSET -7.771700 -0.012900 -0.001300
  CHANNELS 3 Yrotation Xrotation Zrotation
  JOINT RightKnee
  {
   OFFSET 0.000000 -40.869800 0.001200
   CHANNELS 3 Yrotation Xrotation Zrotation
   JOINT RightAnkle
   {
    OFFSET 0.000000 -39.717900 0.002100
    CHANNELS 3 Yrotation Xrotation Zrotation
    JOINT RightToe
    {
     OFFSET 0.000000 -4.965400 11.033500
     CHANNELS 3 Yrotation Xrotation Zrotation
     End Site
     {
      OFFSET 0.000000 -1.423100 5.872300
     }
    }
   }
  }
 }
 JOINT LeftHip
 {
  OFFSET 7.771700 -0.012900 -0.001300
  CHANNELS 3 Yrotation Xrotation Zrotation
  JOINT LeftKnee
  {
   OFFSET 0.000000 -40.869800 0.001200
   CHANNELS 3 Yrotation Xrotation Zrotation
   JOINT LeftAnkle
   {
    OFFSET 0.000000 -39.717900 0.002100
    CHANNELS 3 Yrotation Xrotation Zrotation
    JOINT LeftToe
    {
     OFFSET 0.000000 -4.965400 11.033500
     CHANNELS 3 Yrotation Xrotation Zrotation
     End Site
     {
      OFFSET 0.000000 -1.423100 5.872300
     }
    }
   }
  }
 }
}
MOTION
Frames: 13
Frame Time: 0.008333
-26.420773 46.907625 26.688980 178.414969 -29.835663 -3.572691 0.985412 18.128530 1.642069 0.010235 2.003680 0.120863 0.109513 3.308940 0.220814 0.648585 15.715843 1.129850 0.138282 15.440352 -3.474146 1.526327 -7.038717 -6.532803 -0.870231 0.478115 -1.964176 3.941553 -4.506855 -13.638889 -61.227443 -71.786275 107.134363 1.813398 7.320031 -22.399876 0.162183 -0.483322 2.753501 -3.107973 -1.017242 12.923928 93.351874 -77.342948 -131.596664 -3.713570 12.049687 7.903383 -4.214219 -57.104443 -8.510605 -175.042026 79.591967 -166.249458 -5.407930 -19.605742 -5.206882 0.005112 -0.803077 -0.111386 -1.702201 -58.597706 10.303515 -109.206625 79.981627 -113.790269 5.672176 -6.987139 5.506824 0.557912 0.233570 0.096862
-26.344774 46.926490 26.645846 178.389239 -29.782448 -3.534946 0.855706 18.101373 1.542440 0.033963 1.996756 0.125327 0.107148 3.304563 0.219902 0.637184 15.707135 1.125348 0.137185 15.461851 -3.429322 1.506801 -7.000829 -6.447840 -0.868130 0.491982 -1.970200 3.921029 -4.525199 -13.651616 -61.210869 -71.787718 107.192585 1.801979 7.308746 -22.459768 0.160422 -0.492851 2.746062 -3.140836 -1.031079 12.922394 93.325373 -77.354027 -131.561347 -3.714669 12.052279 7.918602 -4.293441 -57.170282 -8.579448 -175.479366 79.685149 -166.673226 -5.406039 -19.368692 -5.243087 0.031701 -0.787488 -0.135571 -1.659256 -58.644978 10.269163 -109.385416 79.935831 -113.923759 5.850174 -7.010395 5.524048 0.434394 0.188016 0.044152
-26.275013 46.941288 26.614629 178.296360 -29.672613 -3.459799 0.772433 18.018312 1.432721 0.061567 1.988695 0.131278 0.104763 3.298695 0.218964 0.625783 15.695303 1.120484 0.134819 15.482027 -3.377783 1.482606 -6.965788 -6.350008 -0.865290 0.505611 -1.974377 3.899762 -4.542535 -13.661015 -61.205308 -71.778101 107.154768 1.806718 7.307771 -22.412833 0.159563 -0.497687 2.737229 -3.168597 -1.047774 12.925056 93.303277 -77.365474 -131.533687 -3.716261 12.057643 7.933106 -4.303515 -57.300759 -8.645932 -175.824461 79.778247 -166.995586 -5.380665 -19.113350 -5.298914 0.045706 -0.771539 -0.144355 -1.558955 -58.751867 10.226223 -109.509211 79.915983 -114.017236 6.067980 -6.999188 5.559500 0.250209 0.121435 -0.028889
-26.212626 46.958212 26.584827 178.216969 -29.581344 -3.393659 0.707143 17.950492 1.340100 0.060377 1.984844 0.130662 0.102709 3.292655 0.218008 0.615826 15.683005 1.115430 0.130184 15.499867 -3.321139 1.452492 -6.935426 -6.242084 -0.864151 0.515402 -1.976111 3.880846 -4.555638 -13.665211 -61.190425 -71.770011 107.105679 1.804909 7.311134 -22.372530 0.157971 -0.499420 2.728837 -3.194225 -1.069736 12.929932 93.261664 -77.377600 -131.486543 -3.717717 12.062581 7.943793 -4.314055 -57.408740 -8.713927 -176.124295 79.861791 -167.270787 -5.344752 -18.818478 -5.369409 0.046305 -0.791349 -0.136459 -1.466063 -58.840560 10.177841 -109.625430 79.901776 -114.103324 6.238906 -6.990236 5.583832 0.105431 0.067920 -0.100799
-26.153751 46.978284 26.555203 178.120888 -29.525372 -3.353243 0.667596 17.913433 1.281945 0.059209 1.981346 0.130017 0.100691 3.287111 0.216948 0.605955 15.671737 1.110166 0.123645 15.516327 -3.260162 1.417330 -6.907831 -6.125451 -0.860531 0.523162 -1.976325 3.862927 -4.564841 -13.663063 -61.153490 -71.765045 107.066810 1.796044 7.314979 -22.373987 0.152667 -0.500220 2.722033 -3.213979 -1.093997 12.933325 93.194414 -77.389803 -131.414466 -3.717666 12.066967 7.956643 -4.349338 -57.477258 -8.723297 -176.377878 79.939761 -167.497078 -5.300583 -18.476390 -5.457052 0.037972 -0.846411 -0.116045 -1.406651 -58.894944 10.186472 -109.759275 79.870314 -114.194877 6.354517 -7.000753 5.593821 0.018850 0.028574 -0.134241
-26.105827 46.997166 26.531900 178.063183 -29.459209 -3.325713 0.592319 17.864346 1.217485 0.057753 1.978239 0.129431 0.098240 3.282161 0.215984 0.593991 15.661665 1.105237 0.114766 15.531339 -3.196362 1.376915 -6.883140 -6.002635 -0.853695 0.530215 -1.976953 3.845771 -4.571287 -13.656464 -61.103064 -71.759001 107.010545 1.791849 7.319267 -22.377201 0.143148 -0.501885 2.715826 -3.228615 -1.115104 12.932666 93.117758 -77.402266 -131.331179 -3.715857 12.073315 7.970113 -4.407102 -57.557899 -8.747526 -176.644513 80.024588 -167.747941 -5.264822 -18.084538 -5.548379 0.040248 -0.917064 -0.085734 -1.386525 -58.958327 10.184407 -109.948627 79.862448 -114.352612 6.449874 -7.020178 5.594702 -0.048465 -0.001106 -0.156507
-26.065884 47.017546 26.509932 178.021199 -29.419970 -3.315736 0.511536 17.838761 1.167275 0.055769 1.975635 0.128927 0.095042 3.278033 0.215077 0.578136 15.653456 1.099880 0.103052 15.544100 -3.130575 1.330696 -6.862799 -5.875289 -0.848860 0.535710 -1.979682 3.830518 -4.574300 -13.647450 -61.050651 -71.753807 106.949938 1.789079 7.325489 -22.379282 0.131358 -0.505000 2.708043 -3.243227 -1.129943 12.928154 93.037721 -77.415871 -131.238417 -3.714658 12.081496 7.981098 -4.490553 -57.615190 -8.752128 -176.908159 80.090649 -168.003145 -5.226001 -17.664431 -5.638628 0.038812 -1.003641 -0.057144 -1.402088 -58.993783 10.216743 -110.115548 79.855709 -114.498819 6.517538 -7.032812 5.594387 -0.110484 -0.036192 -0.140651
-26.033855 47.037501 26.491916 177.981463 -29.388982 -3.313557 0.435169 17.817076 1.127084 0.053231 1.973592 0.128332 0.090936 3.274781 0.214010 0.629668 15.648882 1.104330 0.023508 15.551183 -3.053314 1.281955 -6.847538 -5.742074 -0.913908 0.537872 -1.975796 3.815942 -4.575737 -13.636319 -60.989370 -71.747713 106.882210 1.784744 7.329497 -22.384815 0.050447 -0.513833 2.708366 -3.258908 -1.136640 12.918997 92.949222 -77.431696 -131.131621 -3.714434 12.089699 7.992088 -4.588233 -57.664780 -8.740223 -177.093815 80.144833 -168.183486 -5.179855 -17.252558 -5.738599 0.035141 -1.071057 -0.024451 -1.432585 -59.020735 10.268741 -110.257664 79.848074 -114.622065 6.544935 -7.039349 5.592452 -0.130723 -0.062634 -0.157237
-25.999794 47.057741 26.477289 177.882611 -29.374753 -3.342559 0.431776 17.806715 1.150184 0.050306 1.971701 0.127657 0.086020 3.271809 0.212878 0.569922 15.642540 1.091318 0.044849 15.560020 -2.985484 1.233787 -6.837210 -5.602769 -0.878752 0.545822 -1.985674 3.807161 -4.578937 -13.622626 -60.909961 -71.739907 106.797651 1.778780 7.328207 -22.394175 0.075207 -0.520127 2.699228 -3.276016 -1.139094 12.902029 92.850532 -77.449657 -130.974252 -3.725237 12.098264 7.964919 -4.677957 -57.686116 -8.619508 -177.004650 80.195915 -168.071427 -5.140592 -16.884656 -5.842541 0.042053 -1.092221 0.019698 -1.504947 -59.032387 10.430179 -110.428753 79.809314 -114.754136 6.590697 -7.074902 5.571000 -0.134753 -0.072372 -0.186452
-25.985315 47.070934 26.475026 177.786743 -29.299125 -3.299229 0.398863 17.736685 1.095101 0.047178 1.969497 0.127003 0.080699 3.268327 0.211751 0.507333 15.635091 1.077600 0.067103 15.566665 -2.914249 1.184344 -6.831144 -5.458078 -0.849772 0.556580 -1.994957 3.805509 -4.585722 -13.608233 -60.819509 -71.731942 106.701810 1.770947 7.325652 -22.401975 0.101867 -0.526492 2.693071 -3.294451 -1.141859 12.878922 92.732662 -77.473045 -130.826774 -3.731091 12.110634 7.967931 -4.741160 -57.806576 -8.623160 -177.306312 80.219715 -168.366667 -5.069250 -16.569634 -5.976633 0.015381 -1.076446 0.042288 -1.466849 -59.106116 10.458652 -110.480614 79.804397 -114.805844 6.659354 -7.053926 5.587017 -0.181061 -0.118306 -0.201047
-25.970304 47.086148 26.471237 177.706892 -29.261314 -3.300551 0.369859 17.706627 1.079673 0.096535 1.962849 0.139068 0.022445 3.268273 0.199958 0.481815 15.627178 1.070967 0.053532 15.569450 -2.836604 1.130824 -6.829455 -5.308334 -0.860713 0.569107 -1.998132 3.802837 -4.597182 -13.593933 -60.720631 -71.724517 106.598495 1.762277 7.321987 -22.407304 0.091671 -0.535548 2.692264 -3.312251 -1.142981 12.854058 92.611193 -77.498446 -130.711941 -3.728643 12.127352 8.002443 -4.891824 -57.838516 -8.517572 -177.664063 80.274937 -168.715241 -5.041062 -16.388993 -6.096106 0.012559 -0.975236 0.050972 -1.500660 -59.140030 10.553786 -110.525076 79.803046 -114.852653 6.700763 -7.053332 5.603390 -0.200320 -0.141863 -0.187537
-25.958734 47.101601 26.467787 177.635592 -29.242665 -3.313610 0.393206 17.690480 1.101321 0.094326 1.961334 0.139973 -0.031016 3.268517 0.187934 0.523123 15.620954 1.075950 -0.022552 15.566471 -2.750038 1.072306 -6.832555 -5.155751 -0.867206 0.576203 -1.999099 3.722640 -4.604717 -13.570817 -60.621479 -71.718541 106.496282 1.754506 7.316112 -22.411298 0.012887 -0.550238 2.700501 -3.329692 -1.141347 12.829362 92.505403 -77.519854 -130.580181 -3.733298 12.147881 7.997875 -4.976841 -57.837206 -8.408451 -177.837493 80.325476 -168.886882 -5.038951 -16.286486 -6.119843 0.013902 -0.837580 0.029239 -1.537687 -59.154406 10.651088 -110.581118 79.790264 -114.896842 6.725706 -7.066068 5.591771 -0.210907 -0.151117 -0.176400
-25.951507 47.116051 26.466109 177.563521 -29.229113 -3.324143 0.346779 17.689250 1.084573 0.039151 1.962359 0.125868 0.042955 3.258213 0.205243 0.466789 15.611751 1.065751 -0.009124 15.565679 -2.676225 1.011106 -6.840435 -5.004534 -0.785999 0.588464 -2.012705 3.639538 -4.609932 -13.548579 -60.533694 -71.712794 106.409248 1.747909 7.307891 -22.417500 0.019307 -0.561803 2.696681 -3.343861 -1.138477 12.806821 92.416507 -77.538709 -130.461065 -3.737614 12.172975 7.990613 -5.140472 -57.827740 -8.240583 -178.076372 80.381698 -169.154293 -5.032366 -16.244150 -6.155163 0.012058 -0.684144 0.015200 -1.564460 -59.164021 10.740812 -110.621151 79.772498 -114.924349 6.739952 -7.079979 5.580109 -0.210468 -0.156913 -0.162897
